<?xml version="1.0" encoding="UTF-8" standalone="no"?>
<!-- Created with Inkscape (http://www.inkscape.org/) -->

<svg
   width="578.95099mm"
   height="178.062mm"
   viewBox="0 0 578.95099 178.062"
   version="1.1"
   id="svg1"
   inkscape:version="1.3.2 (091e20e, 2023-11-25, custom)"
   sodipodi:docname="INSS.svg"
   xmlns:inkscape="http://www.inkscape.org/namespaces/inkscape"
   xmlns:sodipodi="http://sodipodi.sourceforge.net/DTD/sodipodi-0.dtd"
   xmlns="http://www.w3.org/2000/svg"
   xmlns:svg="http://www.w3.org/2000/svg">
  <sodipodi:namedview
     id="namedview1"
     pagecolor="#505050"
     bordercolor="#eeeeee"
     borderopacity="1"
     inkscape:showpageshadow="0"
     inkscape:pageopacity="0"
     inkscape:pagecheckerboard="0"
     inkscape:deskcolor="#505050"
     inkscape:document-units="mm"
     inkscape:zoom="0.42050406"
     inkscape:cx="870.38399"
     inkscape:cy="238.99888"
     inkscape:window-width="1366"
     inkscape:window-height="705"
     inkscape:window-x="-8"
     inkscape:window-y="-8"
     inkscape:window-maximized="1"
     inkscape:current-layer="layer1" />
  <defs
     id="defs1" />
  <g
     inkscape:label="Camada 1"
     inkscape:groupmode="layer"
     id="layer1">
    <g
       id="Layer1000"
       transform="matrix(0.98140647,0,0,0.98140647,-16.339556,-22.261416)">
      <g
         id="Layer1001">
        <path
           d="M 126.6424,36.3501 C 195.9919,12.2414 263.8532,27.1233 277.5446,69.6854 291.2359,112.2476 245.6974,166.4176 176.3479,190.5262 106.7007,214.6348 38.8394,199.7529 25.1481,157.1908 11.4568,114.6287 56.9953,60.4587 126.6424,36.3501 Z"
           style="fill:#ffffff;fill-rule:evenodd"
           id="path2" />
        <path
           d="m 210.5762,106.2948 c 0.5952,0 1.1905,0 1.7858,0.2977 0.8929,0 1.7858,-0.5953 1.7858,-1.7859 0,-2.0834 -0.2976,-3.8692 -0.5953,-5.9527 0,-0.5953 -0.5952,-1.1906 -1.1905,-1.4882 -0.5953,-0.2976 -1.1906,-0.2976 -1.7858,-0.5953 -1.1906,-0.2976 -2.0835,0.5953 -2.0835,1.7859 0.2976,2.0834 0.2976,3.8692 0.5953,5.9527 0,0.8929 0.5953,1.4882 1.4882,1.7858 z"
           style="fill:#005cb9;fill-rule:evenodd"
           id="path4" />
        <path
           d="m 210.5762,130.1058 c 0.5952,-0.2976 1.1905,-0.2976 1.7858,-0.5953 0.5953,-0.2976 1.1905,-0.5952 1.1905,-1.4881 0.2977,-2.0835 0.2977,-3.8693 0.5953,-5.9528 0,-0.8929 -0.8929,-1.7858 -1.7858,-1.7858 -0.5953,0 -1.1906,0 -1.7858,0.2976 -0.8929,0 -1.4882,0.5953 -1.4882,1.4882 0,2.0835 -0.2977,4.1669 -0.5953,5.9528 0,1.4881 0.8929,2.3811 2.0835,2.0834 z"
           style="fill:#005cb9;fill-rule:evenodd"
           id="path6" />
        <path
           d="m 93.6047,113.4381 c 0,-0.8929 0,-2.0834 0,-2.9763 0,-0.893 -0.8929,-1.7859 -1.7858,-1.7859 -0.5953,0 -1.1906,0 -1.7858,0 -0.893,0 -1.4882,0.8929 -1.4882,1.4882 0,0.8929 0,2.0835 0,2.9764 0,1.1905 0,2.0834 0,3.274 0,0.8929 0.5952,1.4882 1.4882,1.4882 0.5952,0 1.1905,0 1.7858,0 0.8929,0 1.7858,-0.5953 1.7858,-1.7858 0,-0.5953 0,-1.7859 0,-2.6788 z"
           style="fill:#005cb9;fill-rule:evenodd"
           id="path8" />
        <path
           d="m 199.8612,92.6035 c 1.4882,0.2976 2.6788,0.5953 4.1669,0.8929 1.1906,0.2977 2.0835,-0.5953 2.0835,-1.7858 -0.2976,-2.3811 -0.5953,-4.7622 -1.1905,-7.1433 0,-0.5953 -0.5953,-1.1905 -1.1906,-1.1905 -1.4882,-0.2977 -2.6787,-0.893 -4.1669,-1.1906 -1.1906,-0.2976 -2.3811,0.5953 -2.0835,1.7858 0.2977,2.3811 0.8929,5.0599 1.1906,7.441 0,0.5952 0.2976,1.1905 1.1905,1.1905 z"
           style="fill:#005cb9;fill-rule:evenodd"
           id="path10" />
        <path
           d="m 101.9385,94.687 c -1.4881,0.2976 -2.9763,0.5952 -4.1669,0.8929 -0.5952,0 -1.1905,0.5953 -1.1905,1.4882 -0.2977,2.3811 -0.2977,4.4645 -0.5953,6.8456 0,0.8929 0.8929,1.7859 1.7858,1.7859 1.4882,0 2.6788,-0.2977 4.1669,-0.2977 0.893,0 1.4882,-0.5953 1.4882,-1.4882 0,-2.3811 0.2977,-4.7622 0.5953,-7.1433 -0.2976,-1.1905 -1.1905,-2.0834 -2.0835,-2.0834 z"
           style="fill:#005cb9;fill-rule:evenodd"
           id="path12" />
        <path
           d="m 101.6409,121.772 c -1.4882,0 -2.9764,-0.2977 -4.1669,-0.2977 -0.8929,0 -1.7858,0.5953 -1.7858,1.7859 0,2.3811 0.2976,4.7622 0.5952,6.8456 0,0.5953 0.5953,1.1906 1.1906,1.4882 1.4882,0.2976 2.6787,0.5953 4.1669,0.8929 1.1906,0.2976 2.0835,-0.5953 2.0835,-1.7858 -0.2977,-2.3811 -0.2977,-4.7622 -0.5953,-7.1433 0,-1.1906 -0.5953,-1.7858 -1.4882,-1.7858 z"
           style="fill:#005cb9;fill-rule:evenodd"
           id="path14" />
        <path
           d="m 199.8612,113.4381 c 0,1.1906 0,2.6788 0,3.8693 0,0.8929 0.8929,1.7858 1.7858,1.7858 1.4882,0 2.9764,-0.2976 4.167,-0.2976 0.8929,0 1.4882,-0.8929 1.4882,-1.4882 0,-1.1905 0,-2.3811 0,-3.8693 0,-1.1905 0,-2.3811 0,-3.274 0,-0.8929 -0.5953,-1.4882 -1.4882,-1.4882 -1.4882,0 -2.9764,-0.2976 -4.167,-0.2976 -0.8929,0 -1.7858,0.5953 -1.7858,1.7858 0,0.8929 0,2.0835 0,3.274 z"
           style="fill:#005cb9;fill-rule:evenodd"
           id="path16" />
        <path
           d="m 193.3132,75.6382 c -0.2976,-1.4882 -0.5953,-2.6788 -0.8929,-4.1669 0,-0.5953 -0.5953,-1.1906 -1.1906,-1.1906 -2.0834,-0.5953 -4.1669,-1.1905 -6.548,-1.7858 -1.1905,-0.2976 -2.0834,0.8929 -2.0834,1.7858 0.2976,1.4882 0.5952,2.6787 0.5952,4.1669 0,0.5953 0.5953,1.1906 1.1906,1.4882 2.0834,0.2977 4.4645,0.8929 6.548,1.4882 1.4882,0.5953 2.6787,-0.5953 2.3811,-1.7858 z"
           style="fill:#005cb9;fill-rule:evenodd"
           id="path18" />
        <path
           d="m 109.6771,151.2381 c 0.2977,1.4882 0.5953,2.6787 0.8929,4.1669 0,0.5953 0.5953,1.1905 1.1906,1.1905 2.0834,0.5953 4.1669,1.1906 6.548,1.7859 1.1906,0.2976 2.0835,-0.893 2.0835,-1.7859 -0.2977,-1.4882 -0.5953,-2.6787 -0.5953,-4.1669 0,-0.5953 -0.5953,-1.1905 -1.1906,-1.4882 -2.0834,-0.2976 -4.1669,-0.8929 -6.2503,-1.4882 -1.7859,-0.2976 -2.9764,0.5953 -2.6788,1.7859 z"
           style="fill:#005cb9;fill-rule:evenodd"
           id="path20" />
        <path
           d="m 117.4157,89.0319 c 0.2976,-2.9764 0.5953,-5.6551 0.8929,-8.3339 0.2976,-1.1905 -0.8929,-2.0834 -1.7858,-1.7858 -2.3811,0.2976 -4.4646,0.8929 -6.8457,1.4882 -0.5953,0.2976 -1.1905,0.5953 -1.1905,1.1905 -0.5953,2.6788 -0.8929,5.3575 -1.1906,8.0362 0,1.1906 0.8929,2.0835 1.7858,1.7859 2.0835,-0.2977 4.4646,-0.5953 6.8457,-0.8929 0.8929,0 1.4882,-0.5953 1.4882,-1.4882 z"
           style="fill:#005cb9;fill-rule:evenodd"
           id="path22" />
        <path
           d="m 185.277,137.8444 c -0.2976,2.9764 -0.5953,5.6551 -0.8929,8.6315 -0.2977,1.1905 0.8929,2.0834 1.7858,1.7858 2.3811,-0.2976 4.4646,-0.8929 6.8457,-1.4882 0.5952,-0.2976 1.1905,-0.5953 1.1905,-1.1905 0.5953,-2.6788 0.8929,-5.3575 1.1906,-8.3339 0,-1.1905 -0.8929,-2.0835 -1.7859,-1.7858 -2.0834,0.2976 -4.4645,0.5953 -6.8456,0.8929 -0.8929,0.2976 -1.4882,0.8929 -1.4882,1.4882 z"
           style="fill:#005cb9;fill-rule:evenodd"
           id="path24" />
        <path
           d="m 115.9275,136.3562 c -2.3811,-0.2976 -4.4646,-0.5953 -6.8457,-0.8929 -1.1905,-0.2977 -2.0834,0.5953 -1.7858,1.7858 0.2977,2.6787 0.8929,5.6551 1.1906,8.3339 0,0.5952 0.5952,1.1905 1.1905,1.1905 2.0835,0.5953 4.4646,0.8929 6.8457,1.4882 1.1905,0.2976 2.0834,-0.5953 1.7858,-1.7858 -0.2976,-2.6788 -0.5953,-5.6551 -0.8929,-8.6315 0,-0.5953 -0.5953,-1.1906 -1.4882,-1.4882 z"
           style="fill:#005cb9;fill-rule:evenodd"
           id="path26" />
        <path
           d="m 187.6581,134.2727 c 2.3811,-0.2976 4.7622,-0.5952 7.1433,-0.8929 0.8929,0 1.1905,-0.5953 1.4882,-1.4882 0.2976,-2.6787 0.2976,-5.3574 0.5953,-8.0362 0,-0.8929 -0.893,-1.7858 -1.7859,-1.7858 -2.3811,0.2976 -4.7622,0.2976 -7.1433,0.5953 -0.8929,0 -1.4882,0.5953 -1.4882,1.4882 0,2.6787 -0.2976,5.6551 -0.5952,8.3338 -0.2977,0.8929 0.5952,1.7858 1.7858,1.7858 z"
           style="fill:#005cb9;fill-rule:evenodd"
           id="path28" />
        <path
           d="m 187.9557,104.509 c 2.3811,0 4.7622,0.2976 7.1433,0.2976 0.8929,0 1.7859,-0.5952 1.7859,-1.7858 0,-2.6787 -0.2977,-5.3575 -0.5953,-8.0362 0,-0.8929 -0.5953,-1.4882 -1.4882,-1.4882 -2.3811,-0.2976 -4.7622,-0.5953 -7.1433,-0.8929 -0.8929,0 -1.7858,0.5953 -1.7858,1.7858 0.2976,2.6788 0.2976,5.3575 0.5952,8.3339 0,0.8929 0.5953,1.7858 1.4882,1.7858 z"
           style="fill:#005cb9;fill-rule:evenodd"
           id="path30" />
        <path
           d="m 116.2251,113.4381 c 0,-1.4882 0,-2.6787 0,-4.1669 0,-0.8929 -0.8929,-1.7858 -1.7858,-1.7858 -2.3811,0 -4.7622,0.2976 -7.1433,0.2976 -0.8929,0 -1.4882,0.8929 -1.4882,1.4882 0,1.1906 0,2.6787 0,3.8693 0,1.4882 0,2.9764 0,4.1669 0,0.8929 0.5953,1.4882 1.4882,1.4882 2.3811,0 4.7622,0.2976 7.1433,0.2976 0.8929,0 1.7858,-0.5952 1.7858,-1.7858 0,-0.8929 0,-2.3811 0,-3.8693 z"
           style="fill:#005cb9;fill-rule:evenodd"
           id="path32" />
        <path
           d="m 124.2613,164.0365 c 0.2977,0.8929 0.2977,1.7858 0.5953,2.6787 0,0.5953 0.5953,1.1906 1.1906,1.1906 2.6787,0.5952 5.3574,0.8929 8.0362,1.1905 1.1905,0 2.0834,-0.8929 1.7858,-1.7858 0,-0.8929 -0.2976,-1.7858 -0.2976,-2.6788 0,-0.8929 -0.5953,-1.1905 -1.4882,-1.4881 -2.6788,-0.2977 -5.3575,-0.5953 -8.0362,-1.1906 -1.1906,0 -2.0835,0.8929 -1.7859,2.0835 z"
           style="fill:#005cb9;fill-rule:evenodd"
           id="path34" />
        <path
           d="m 168.6093,154.5121 c 0,1.4882 -0.2976,2.9763 -0.5953,4.4645 0,1.1906 0.8929,2.0835 1.7859,1.7859 2.9763,-0.2977 5.9527,-0.893 8.6314,-1.1906 0.5953,0 1.1906,-0.5953 1.1906,-1.1905 0.2976,-1.4882 0.5953,-2.9764 0.8929,-4.4646 0.2976,-1.1905 -0.8929,-2.0835 -1.7858,-1.7858 -2.9764,0.2976 -5.6551,0.8929 -8.6315,1.1905 -0.8929,-0.2976 -1.4882,0.2977 -1.4882,1.1906 z"
           style="fill:#005cb9;fill-rule:evenodd"
           id="path36" />
        <path
           d="m 180.5148,73.2571 c -0.2976,-1.4882 -0.5953,-2.9764 -0.8929,-4.4646 0,-0.5952 -0.5953,-1.1905 -1.1906,-1.1905 -2.6787,-0.5953 -5.6551,-0.8929 -8.6314,-1.1906 -1.1906,0 -2.0835,0.8929 -1.7859,1.7859 0.2977,1.4881 0.2977,2.9763 0.5953,4.4645 0,0.8929 0.5953,1.4882 1.4882,1.4882 2.9764,0.2976 5.9527,0.5953 8.6315,1.1905 1.1905,0 2.0834,-0.8929 1.7858,-2.0834 z"
           style="fill:#005cb9;fill-rule:evenodd"
           id="path38" />
        <path
           d="m 182.5983,88.139 c -0.2977,-2.9764 -0.5953,-5.9528 -0.893,-8.9292 0,-0.5952 -0.5952,-1.1905 -1.4881,-1.4882 -2.9764,-0.5952 -5.9528,-0.8929 -9.2268,-1.1905 -0.8929,0 -1.7858,0.8929 -1.7858,1.7858 0.2976,2.9764 0.2976,5.9528 0.5953,9.2268 0,0.8929 0.5952,1.4882 1.4881,1.4882 3.2741,0.2976 6.5481,0.5952 9.5244,0.8929 0.8929,0 1.7859,-0.8929 1.7859,-1.7858 z"
           style="fill:#005cb9;fill-rule:evenodd"
           id="path40" />
        <path
           d="m 120.3921,139.0349 c 0.2976,2.9764 0.5952,5.9528 0.8929,8.9292 0,0.5952 0.5952,1.1905 1.4882,1.4881 2.9763,0.5953 5.9527,0.893 9.2267,1.1906 0.8929,0 1.7858,-0.8929 1.7858,-1.7858 -0.2976,-2.9764 -0.5952,-5.9528 -0.5952,-9.2268 0,-0.8929 -0.5953,-1.4882 -1.4882,-1.4882 -3.274,-0.2976 -6.2504,-0.5953 -9.5244,-0.8929 -1.1906,-0.2976 -2.0835,0.5953 -1.7858,1.7858 z"
           style="fill:#005cb9;fill-rule:evenodd"
           id="path42" />
        <path
           d="m 133.1905,87.5437 c 0.2976,-3.274 0.2976,-6.2504 0.5952,-9.2268 0,-0.8929 -0.8929,-1.7858 -1.7858,-1.7858 -3.274,0.2976 -6.2504,0.5953 -9.2267,1.1905 -0.5953,0 -1.1906,0.5953 -1.4882,1.4882 -0.2977,2.9764 -0.5953,5.9528 -0.8929,8.9292 0,0.8929 0.8929,1.7858 1.7858,1.7858 2.9764,-0.2977 6.2504,-0.5953 9.5244,-0.8929 0.5953,0 1.4882,-0.8929 1.4882,-1.4882 z"
           style="fill:#005cb9;fill-rule:evenodd"
           id="path44" />
        <path
           d="m 130.8094,123.2602 c -3.274,0 -6.5481,-0.2977 -9.8221,-0.2977 -0.8929,0 -1.7858,0.8929 -1.7858,1.7858 0,2.9764 0.2977,5.9528 0.5953,8.9292 0,0.8929 0.5953,1.4881 1.4882,1.4881 3.274,0.2977 6.548,0.5953 9.822,0.893 0.8929,0 1.7858,-0.5953 1.7858,-1.7859 0,-2.9763 -0.2976,-5.9527 -0.2976,-9.2267 0,-1.1906 -0.8929,-1.7858 -1.7858,-1.7858 z"
           style="fill:#005cb9;fill-rule:evenodd"
           id="path46" />
        <path
           d="m 170.0975,124.7483 c 0,2.9764 -0.2976,6.2504 -0.2976,9.2268 0,0.8929 0.8929,1.7858 1.7858,1.7858 3.274,-0.2976 6.548,-0.5953 9.822,-0.8929 0.8929,0 1.4882,-0.5953 1.4882,-1.4882 0.2976,-2.9763 0.2976,-5.9527 0.5953,-8.9291 0,-0.8929 -0.8929,-1.7858 -1.7859,-1.7858 -3.274,0 -6.548,0.2976 -9.822,0.2976 -0.8929,0.2977 -1.4882,0.8929 -1.7858,1.7858 z"
           style="fill:#005cb9;fill-rule:evenodd"
           id="path48" />
        <path
           d="m 171.8833,103.9137 c 3.274,0 6.548,0.2977 9.822,0.2977 0.893,0 1.7859,-0.8929 1.7859,-1.7859 0,-2.9763 -0.2977,-5.9527 -0.5953,-8.9291 0,-0.8929 -0.5953,-1.4882 -1.4882,-1.4882 -3.274,-0.2976 -6.548,-0.5952 -9.822,-0.8929 -0.8929,0 -1.7858,0.5953 -1.7858,1.7858 0,2.9764 0.2976,5.9528 0.2976,9.2268 0.2976,0.8929 0.8929,1.7858 1.7858,1.7858 z"
           style="fill:#005cb9;fill-rule:evenodd"
           id="path50" />
        <path
           d="m 132.5952,102.1279 c 0,-2.9764 0.2976,-6.2504 0.2976,-9.2268 0,-0.8929 -0.8929,-1.7858 -1.7858,-1.7858 -3.274,0.2977 -6.548,0.5953 -9.822,0.8929 -0.8929,0 -1.4882,0.5953 -1.4882,1.4882 -0.2976,2.9764 -0.2976,5.9528 -0.5953,8.9291 0,0.893 0.8929,1.7859 1.7858,1.7859 3.274,0 6.5481,-0.2977 9.8221,-0.2977 0.8929,0 1.7858,-0.8929 1.7858,-1.7858 z"
           style="fill:#005cb9;fill-rule:evenodd"
           id="path52" />
        <path
           d="m 170.3951,113.4381 c 0,1.7858 0,3.274 0,5.0599 0,0.8929 0.8929,1.7858 1.7859,1.7858 3.274,0 6.8456,0 10.1196,-0.2977 0.8929,0 1.4882,-0.5952 1.4882,-1.4881 0,-1.4882 0,-3.2741 0,-4.7622 0,-1.4882 0,-2.9764 0,-4.4646 0,-0.8929 -0.5953,-1.4882 -1.4882,-1.4882 -3.274,0 -6.548,-0.2976 -10.1196,-0.2976 -0.893,0 -1.7859,0.5953 -1.7859,1.7858 0,0.8929 0,2.3811 0,4.1669 z"
           style="fill:#005cb9;fill-rule:evenodd"
           id="path54" />
        <path
           d="m 132.2976,113.4381 c 0,-1.4882 0,-2.9763 0,-4.7622 0,-0.8929 -0.893,-1.7858 -1.7859,-1.7858 -3.274,0 -6.8456,0 -10.1196,0.2976 -0.8929,0 -1.4882,0.5953 -1.4882,1.4882 0,1.4882 0,2.9764 0,4.4646 0,1.4882 0,3.274 0,4.7622 0,0.8929 0.5953,1.4882 1.4882,1.4882 3.274,0 6.548,0.2976 10.1196,0.2976 0.8929,0 1.7859,-0.5953 1.7859,-1.7858 0,-1.1906 0,-2.9764 0,-4.4646 z"
           style="fill:#005cb9;fill-rule:evenodd"
           id="path56" />
        <path
           d="m 152.8345,165.8223 c 0,0.8929 0,1.7858 0,2.9764 0,0.8929 0.8929,1.7858 1.7859,1.7858 2.6787,0 5.0598,-0.2976 7.7385,-0.2976 0.8929,0 1.4882,-0.5953 1.4882,-1.4882 0,-0.8929 0.2976,-1.7859 0.2976,-2.9764 0,-0.8929 -0.5952,-1.7858 -1.7858,-1.7858 -2.6787,0.2976 -5.0598,0.2976 -7.7385,0.2976 -0.893,0 -1.4882,0.5953 -1.7859,1.4882 z"
           style="fill:#005cb9;fill-rule:evenodd"
           id="path58" />
        <path
           d="m 164.1447,61.3516 c 0,-0.8929 -0.2976,-1.7858 -0.2976,-2.9764 0,-0.8929 -0.5953,-1.4882 -1.4882,-1.4882 -2.3811,-0.2976 -5.0598,-0.2976 -7.7385,-0.2976 -0.893,0 -1.7859,0.8929 -1.7859,1.7858 0,0.8929 0,1.7858 0,2.9764 0,0.8929 0.5953,1.4882 1.4882,1.4882 2.6788,0 5.0599,0.2976 7.7386,0.2976 1.1905,0 2.0834,-0.8929 2.0834,-1.7858 z"
           style="fill:#005cb9;fill-rule:evenodd"
           id="path60" />
        <path
           d="m 137.655,155.1073 c 0,1.4882 0.2977,3.2741 0.2977,4.7622 0,0.893 0.5952,1.4882 1.4882,1.4882 2.6787,0.2977 5.6551,0.2977 8.3338,0.2977 0.8929,0 1.7858,-0.5953 1.7858,-1.7859 0,-1.4881 0,-3.274 0,-4.7622 0,-0.8929 -0.5953,-1.4881 -1.4882,-1.4881 -2.9763,0 -5.6551,-0.2977 -8.6314,-0.2977 -0.893,0 -1.7859,0.8929 -1.7859,1.7858 z"
           style="fill:#005cb9;fill-rule:evenodd"
           id="path62" />
        <path
           d="m 149.5605,71.4713 c 0,-1.4882 0,-3.274 0,-4.7622 0,-0.8929 -0.8929,-1.7859 -1.7858,-1.7859 -2.9764,0 -5.6551,0.2977 -8.3338,0.2977 -0.893,0 -1.4882,0.5953 -1.4882,1.4882 0,1.4882 -0.2977,3.274 -0.2977,4.7622 0,0.8929 0.8929,1.7858 1.7859,1.7858 2.6787,-0.2977 5.6551,-0.2977 8.6314,-0.2977 0.8929,0.2977 1.4882,-0.5952 1.4882,-1.4881 z"
           style="fill:#005cb9;fill-rule:evenodd"
           id="path64" />
        <path
           d="m 165.9306,86.9484 c 0,-3.274 -0.2977,-6.2504 -0.5953,-9.5244 0,-0.8929 -0.5953,-1.4882 -1.4882,-1.4882 -2.9764,-0.2976 -5.9527,-0.2976 -9.2267,-0.2976 -0.893,0 -1.7859,0.5953 -1.7859,1.7858 0,2.9764 0,6.2504 0,9.5244 0,0.8929 0.5953,1.4882 1.4882,1.7858 3.274,0 6.2504,0 9.5244,0.2977 1.4882,-0.2977 2.0835,-1.1906 2.0835,-2.0835 z"
           style="fill:#005cb9;fill-rule:evenodd"
           id="path66" />
        <path
           d="m 153.1322,140.2255 c 0,3.274 0,6.548 0,9.5244 0,0.8929 0.8929,1.7858 1.7858,1.7858 2.9764,0 5.9527,-0.2976 8.9291,-0.2976 0.8929,0 1.4882,-0.5953 1.4882,-1.4882 0.2976,-2.9764 0.2976,-6.2504 0.5953,-9.5244 0,-0.8929 -0.8929,-1.7858 -1.7859,-1.7858 -2.9763,0 -6.2503,0.2976 -9.5243,0.2976 -0.5953,0 -1.4882,0.5953 -1.4882,1.4882 z"
           style="fill:#005cb9;fill-rule:evenodd"
           id="path68" />
        <path
           d="m 136.4645,125.046 c 0,3.274 0.2976,6.2504 0.2976,9.5244 0,0.8929 0.5953,1.4882 1.4882,1.4882 3.274,0 6.548,0.2976 9.822,0.2976 0.8929,0 1.7859,-0.5953 1.7859,-1.7858 0,-2.9764 0,-6.2504 0,-9.5244 0,-0.8929 -0.893,-1.7858 -1.7859,-1.7858 -3.274,0 -6.548,0 -9.822,0 -1.1905,0 -1.7858,0.8929 -1.7858,1.7858 z"
           style="fill:#005cb9;fill-rule:evenodd"
           id="path70" />
        <path
           d="m 149.5605,101.8303 c 0,-3.274 0,-6.2504 0,-9.5244 0,-0.8929 -0.8929,-1.7858 -1.7858,-1.7858 -3.274,0 -6.548,0 -9.822,0.2976 -0.8929,0 -1.4882,0.5953 -1.4882,1.4882 0,2.9763 -0.2977,6.2504 -0.2977,9.5244 0,0.8929 0.5953,1.7858 1.7859,1.7858 3.274,0 6.548,0 9.822,0 0.8929,0 1.7858,-0.8929 1.7858,-1.7858 z"
           style="fill:#005cb9;fill-rule:evenodd"
           id="path72" />
        <path
           d="m 165.0377,106.8901 c -3.2741,0 -6.5481,0 -10.1197,0 -0.8929,0 -1.7858,0.5953 -1.7858,1.7858 0,1.4882 0,3.274 0,4.7622 0,1.7858 0,3.5717 0,5.0599 0,0.8929 0.8929,1.7858 1.7858,1.7858 3.274,0 6.8456,0 10.1197,0 0.8929,0 1.4881,-0.5953 1.4881,-1.4882 0,-1.7858 0,-3.274 0,-5.0598 0,-1.4882 0,-3.274 0,-4.7622 0,-1.1906 -0.5952,-2.0835 -1.4881,-2.0835 z"
           style="fill:#005cb9;fill-rule:evenodd"
           id="path74" />
        <path
           d="m 149.8582,52.4225 v 0 c 0,0.8929 -0.5953,1.7858 -1.4882,1.7858 -2.6788,0 -5.0599,0.2976 -6.8457,0.2976 -0.8929,0 -1.7858,-0.8929 -1.7858,-1.7858 0,-0.8929 0.5953,-1.4882 1.4882,-1.4882 1.7858,0 4.7622,-0.2976 6.8456,-0.2976 0.8929,0 1.7859,0.5953 1.7859,1.4882 z"
           style="fill:#005cb9;fill-rule:evenodd"
           id="path76" />
        <path
           d="m 149.8582,174.4538 v 0 c 0,-0.8929 -0.5953,-1.7858 -1.4882,-1.7858 -2.6788,0 -5.0599,-0.2977 -6.8457,-0.2977 -0.8929,0 -1.7858,0.8929 -1.7858,1.7858 0,0.8929 0.5953,1.4882 1.4882,1.4882 1.7858,0 4.7622,0.2977 7.1433,0.2977 0.8929,0.2976 1.4882,-0.5953 1.4882,-1.4882 z"
           style="fill:#005cb9;fill-rule:evenodd"
           id="path78" />
        <path
           d="m 153.1322,35.7548 c -2.0835,0.2976 -2.0835,3.274 0,3.5716 33.0377,7.441 41.9668,37.2047 62.8014,51.1937 4.7622,3.274 10.1197,5.3574 16.3701,6.548 1.7858,0.2976 3.274,2.0834 3.274,3.8693 -0.2976,32.4424 -47.622,41.3715 -53.5747,77.3857 -0.2977,1.4881 1.1905,2.6787 2.6787,2.0834 66.6708,-29.1684 96.1369,-74.7069 85.4219,-108.6376 C 263.258,49.4461 228.4344,19.6824 153.1322,35.7548 Z"
           style="fill:#ffbf3c;fill-rule:evenodd"
           id="path80" />
        <path
           d="m 149.5605,191.4191 c 2.0835,-0.2976 2.0835,-3.274 0,-3.8693 -33.0377,-7.4409 -41.9668,-37.2046 -62.8015,-51.1936 -4.7622,-3.274 -10.1196,-5.3575 -16.37,-6.548 -1.7858,-0.2977 -3.274,-2.0835 -3.274,-3.8693 0.2976,-32.4425 47.622,-41.3716 53.5747,-77.3857 0.5953,-1.4882 -0.8929,-2.6787 -2.3811,-2.0835 -66.9684,29.4661 -96.1369,74.707 -85.4219,108.9353 6.8456,22.0251 43.1574,51.4912 116.6738,36.0141 z"
           style="fill:#009845;fill-rule:evenodd"
           id="path82" />
        <path
           d="m 191.825,25.3375 c -20.8346,0 -43.1574,3.8693 -65.1826,11.3102 -69.3494,24.1086 -114.5903,77.981 -100.899,120.2455 4.4646,13.9889 15.1795,25.2991 30.6566,33.3354 30.0614,15.1795 75.8976,14.8818 119.6502,-0.2977 C 245.3997,165.8223 290.6406,111.9499 276.9493,69.6854 272.7824,55.9941 262.0674,44.3863 246.2926,36.6477 231.4108,29.2068 212.362,25.3375 191.825,25.3375 Z m -80.9573,177.0942 c -20.8346,0 -39.8834,-3.8693 -55.0629,-11.3102 C 40.03,183.0853 29.0174,171.4774 24.5528,157.1908 10.8615,114.6287 56.6977,60.161 126.3448,35.7548 l 0.2976,0.5953 -0.2976,-0.5953 c 44.0503,-15.1795 90.1841,-15.1795 120.5431,0 15.7748,8.0362 26.7874,19.644 31.2519,33.9306 13.6914,42.5622 -31.8472,97.0298 -101.7919,121.4361 -22.0252,7.4409 -44.348,11.3102 -65.4802,11.3102 z"
           style="fill:#ccdbf1;fill-rule:evenodd"
           id="path84" />
        <g
           id="Layer1002">
          <path
             d="m 351.3586,155.7026 4.1669,-85.7195 h 40.1811 c 8.3338,16.0724 15.7748,32.1448 22.9181,47.9196 0,0 1.7858,-31.8472 2.0834,-47.9196 h 29.4661 l -4.1669,85.7195 h -38.3952 c -8.3339,-15.7748 -16.6677,-31.5495 -23.5134,-46.729 l -1.7858,46.729 z"
             style="fill:#005cb9;fill-rule:evenodd"
             id="path86" />
          <path
             d="m 499.582,96.1752 c 0,-3.8693 6.8457,-4.167 9.2268,-4.167 5.9527,0 12.2031,1.1906 17.5606,3.274 l -1.1906,-24.1086 c -8.3338,-1.4882 -16.6677,-2.3811 -25.0015,-2.0834 -26.4897,0.5952 -34.8236,13.9889 -34.526,25.2991 0.5953,20.537 28.8709,28.2756 28.8709,36.6094 0,3.8693 -6.8457,3.8693 -9.5244,4.1669 -7.1433,0.2977 -14.5843,-1.7858 -20.8346,-4.1669 l -1.1906,24.7039 c 8.6315,1.1906 20.537,2.9764 29.4661,2.6788 28.2756,-0.5953 36.3118,-15.1795 36.0141,-27.6803 -0.2976,-18.1559 -28.8708,-26.7874 -28.8708,-34.5259 z"
             style="fill:#005cb9;fill-rule:evenodd"
             id="path88" />
          <path
             d="m 572.2055,96.1752 c 0,-3.8693 6.8457,-4.167 9.2268,-4.167 5.9527,0 12.2031,1.1906 17.5606,3.274 l -1.1906,-24.1086 c -8.3338,-1.4882 -16.6677,-2.3811 -25.0015,-2.0834 -26.4897,0.5952 -34.8236,13.9889 -34.5259,25.2991 0.5952,20.537 28.8708,28.2756 28.8708,36.6094 0,3.8693 -6.8457,3.8693 -9.5244,4.1669 -7.1433,0.2977 -14.5842,-1.7858 -20.8346,-4.1669 l -1.1906,24.7039 c 8.6315,1.1906 20.537,2.9764 29.4661,2.6788 28.2756,-0.5953 36.3118,-15.1795 36.0141,-27.6803 -0.2976,-18.1559 -28.5732,-26.7874 -28.8708,-34.5259 z"
             style="fill:#005cb9;fill-rule:evenodd"
             id="path90" />
          <path
             d="m 298.3792,156.2979 3.8693,-85.7195 h 34.8235 l -3.8693,85.7195 z"
             style="fill:#005cb9;fill-rule:evenodd"
             id="path92" />
        </g>
      </g>
    </g>
  </g>
</svg>
